<?xml version="1.0" encoding="UTF-8"?>
<svg id="a" xmlns="http://www.w3.org/2000/svg" width="1200" height="630" viewBox="0 0 1200 630">
  <rect width="1200" height="630" style="fill:#0000e8;" />
  <rect x="92.3" y="345.1" width="193.6" height="41" style="fill:#f4f4f4;" />
  <polygon points="204.5 332 286 294.9 286 247.5 228 247.5 189.2 304.4 150.4 247.5 92.3 247.5 92.3 294.9 173.8 332 204.5 332" style="fill:#f4f4f4;" />
  <polygon points="379.9 247.2 358.8 247.2 358.8 385.4 452.2 385.4 452.2 367 379.9 367 379.9 247.2" style="fill:#f4f4f4;" />
  <path d="m531.5,339c0,20.5-8.5,31.8-23.9,31.8-14.1,0-21-8.4-21-25.7v-62.5h-20.7v65.6c0,25.1,13.5,39.5,37,39.5,12.3,0,22.8-5.2,29.2-13.9v11.6h20.1v-102.8h-20.7v56.4h0Z" style="fill:#f4f4f4;" />
  <path d="m688.2,280.3c-13.9,0-25.9,6.7-32.8,18.2-5.5-12.1-15.7-18.2-30.3-18.2-12,0-22.6,5.3-29,14.1v-11.7h-19.9v102.8h20.5v-56.5c0-19.8,8.7-31.2,23.9-31.2,13.3,0,19.2,7.9,19.2,25.5v62.1h20.7v-56.4c0-19.8,8.6-31.2,23.7-31.2,13.3,0,19.2,7.9,19.2,25.5v62.1h20.7v-65.6c.1-25.1-13-39.5-35.9-39.5Z" style="fill:#f4f4f4;" />
  <rect x="747.4" y="282.6" width="20.5" height="102.8" style="fill:#f4f4f4;" />
  <rect x="746.2" y="242.3" width="22.7" height="24" style="fill:#f4f4f4;" />
  <path d="m842.8,326.7l-19.6-3.7c-12.9-2.4-15.5-6.4-15.5-12,0-8.5,7.6-13.9,19.4-13.9,12.5,0,20.3,5.1,21.4,14l.2,1.9h19.3l-.2-2.4c-2.1-19.5-16.5-30.3-40.7-30.3-22.5,0-38.8,13.3-38.8,31.7,0,10,3,23.9,29.1,28.7l17.5,3.5c13.7,2.6,15.5,7.6,15.5,12.2,0,8.9-8.3,14.7-21.2,14.7-11.3,0-23.8-4.5-24.9-17.2l-.2-1.9h-19.9l.2,2.3c1.7,21,18.6,33.5,45,33.5,23.5,0,40.5-13.5,40.5-32.1.1-16-8.7-25.4-27.1-29Z" style="fill:#f4f4f4;" />
  <path d="m923.8,369c-8.6,0-12.2-3.4-12.2-11.8v-58h26.1v-16.6h-25.9v-25.1h-20.3v25.1h-14.5v16.6h14.5v58.8c0,19.2,9.9,29,29.4,29,5.5,0,11.5-1,17.8-2.8l1.5-.5v-17.8l-2.8.9c-6.3,1.9-10.5,2.2-13.6,2.2Z" style="fill:#f4f4f4;" />
  <path d="m1004.1,280.5c-12.5,0-23.1,6.2-29.2,16.8v-14.7h-19.9v102.8h20.5v-50.7c0-17.5,8.6-35.1,27.8-35.1,2.4,0,5.8.2,7.9.7l2.6.7v-19.3l-1.6-.4c-2.2-.6-4.9-.8-8.1-.8Z" style="fill:#f4f4f4;" />
  <path d="m1106.8,382.6c-2-6.6-2.3-13.5-2.3-19.9v-45.2c0-24-14.5-37.2-40.9-37.2-22.7,0-38.7,13.1-40.7,33.3l-.2,2.3h19.9l.2-1.9c1.1-10.4,8.5-16.3,20.4-16.3,9.6,0,21,3.5,21,20.2v3.8l-29.8,3.9c-23.9,2.8-36,13.5-36,31.7s14,30.3,34.1,30.3c14,0,26-5.1,32.5-13.5.3,3.3.8,6.7,1.4,9.7l.4,1.7h20.9l-.9-2.9Zm-51-11.7c-10.3,0-16.7-5.4-16.7-14.1,0-11,7.6-14.2,20.6-16.1l24.5-2.7v6.4c0,18.3-14.7,26.5-28.4,26.5Z" style="fill:#f4f4f4;" />
</svg>