<?xml version="1.0" encoding="UTF-8"?><svg id="a" xmlns="http://www.w3.org/2000/svg" viewBox="0 0 1015.42 141.01" fill="#0000e8"><g><polygon points="278.95 119.21 278.95 5.29 257.15 5.29 257.15 138.99 347.09 138.99 347.09 119.21 278.95 119.21"/><rect x="643.79" y="34.98" width="22.17" height="103.79"/><path d="M425.83,35.2v53.17c0,22.51-8.45,31.65-22.06,33.51-11.45,1.57-23.93-6.21-23.93-23.13V35.2h-21.8v63c0,42.8,36.43,42.8,36.43,42.8,20.21,0,28.76-11.77,32.58-19.16l-.28,17.14h21.06V35.2h-21.99Z"/><path d="M723.7,74.74c-29.89-4.5-15.63-21.54,.47-22.6,13.07-.86,25.23,3.5,32.62,12.64l14.07-12.03c-4.32-5.69-10.26-10.24-17.82-13.85-8.64-3.98-18-5.88-28.08-5.88-18.54,0-40.32,8.54-40.32,32.43,0,11.32,7.25,22.06,24.48,25.98,8.04,1.83,44.82,3.21,44.82,17.64,0,16.36-31.38,14-43.92,7.96-6.3-3.03-11.34-7.02-14.94-12.33l-14.94,14.41c5.22,6.83,12.24,11.95,20.7,15.74,9.36,3.99,19.62,6.07,30.6,6.07,23.16,0,43.56-10.42,43.56-32.24,0-29.91-41.18-32.42-51.3-33.95Z"/><path d="M1015.42,138.76v-57.29c0-22.36-1.47-30-10.65-38.38-8.45-7.82-19.09-9.87-31.03-10.06-15.79-.19-34.34,5.4-45.72,19.38l15.42,12.86c7.53-8.57,17.99-12.48,30.11-12.86,5.38-.17,21.44,2.23,19.83,12.67-.92,5.96-10.33,8.64-33.28,10.5-23.69,1.86-39.4,15.42-38.51,33.84,.92,19.13,17.38,31.49,34.21,31.52,19.14,.03,32.04-9.25,38.32-19.3l-.33,17.13h21.63Zm-71.98-31.02c.94-10.9,9.83-15.84,19.56-16.59,18.54-1.3,26.16-1.74,30.39-5.28-.93,48.62-51.44,39.2-49.94,21.87Z"/><path d="M918.48,33.01c-16.46,1.46-29.49,10.49-35.7,19.1l.52-17.13h-22.17v103.74h22.17v-52.86c0-25.52,17.27-29.68,34.91-29.04l.27-23.82Z"/><path d="M589.31,32.97c-20.21,0-31.36,13.72-35.18,21.11l-.23-1.94c-8.72-21.15-30.02-19.1-30.02-19.1-20.21,0-28.04,11.69-31.86,19.08l.28-17.14h-21.06v103.79h21.99v-53.17c0-20.24,8.78-31.61,22.39-33.47,11.45-1.57,20.5,6.17,20.5,23.09v63.54h21.8v-52.9c0-22.51,8.8-31.87,22.41-33.73,11.45-1.57,20.5,6.17,20.5,23.09v63.54h21.8v-63c0-42.8-33.32-42.8-33.32-42.8Z"/><rect x="643.79" width="22.17" height="22.22"/><path d="M819.67,104.29V52.96h21.95v-18.04h-21.95V11.73h-21.95v23.18h-14.32v18.04h14.32v55.24c0,27.97,21.05,32.73,31.43,32.73,1.86,0,10.04-.74,13.95-2.79l-5.95-18.41c-9.11,2.98-17.48,.19-17.48-15.44Z"/></g><g><rect y="99.43" width="186.84" height="39.55"/><polygon points="108.25 86.79 186.84 51.03 186.84 5.29 130.87 5.29 93.42 60.24 55.97 5.29 0 5.29 0 51.03 78.59 86.79 108.25 86.79"/></g></svg>