<svg width="160" height="31" viewBox="0 0 160 31" fill="none" xmlns="http://www.w3.org/2000/svg">
<path d="M4.6 25.6101V1.58008H0V29.7901H18.98V25.6101H4.6Z" fill="#19192B"/>
<path d="M86.2601 7.83984H81.5801V29.7398H86.2601V7.83984Z" fill="#19192B"/>
<path d="M35.5903 7.88965V19.1096C35.5903 23.8596 33.8103 25.7896 30.9303 26.1796C28.5103 26.5096 25.8803 24.8697 25.8803 21.2997V7.88965H21.2803V21.1796C21.2803 30.2096 28.9703 30.2096 28.9703 30.2096C33.2303 30.2096 35.0403 27.7296 35.8403 26.1696L35.7803 29.7896H40.2203V7.88965H35.5803H35.5903Z" fill="#19192B"/>
<path d="M98.4398 16.2297C92.1298 15.2797 95.1398 11.6797 98.5398 11.4597C101.3 11.2797 103.86 12.1997 105.42 14.1297L108.39 11.5897C107.48 10.3897 106.23 9.42969 104.63 8.66969C102.81 7.82969 100.83 7.42969 98.7098 7.42969C94.7998 7.42969 90.1998 9.22969 90.1998 14.2697C90.1998 16.6597 91.7298 18.9197 95.3698 19.7497C97.0698 20.1397 104.83 20.4297 104.83 23.4697C104.83 26.9197 98.2098 26.4197 95.5598 25.1497C94.2298 24.5097 93.1698 23.6697 92.4098 22.5497L89.2598 25.5897C90.3598 27.0297 91.8398 28.1097 93.6298 28.9097C95.6098 29.7497 97.7698 30.1897 100.09 30.1897C104.98 30.1897 109.28 27.9897 109.28 23.3897C109.28 17.0797 100.59 16.5497 98.4598 16.2297H98.4398Z" fill="#19192B"/>
<path d="M160 29.7397V17.6497C160 12.9297 159.69 11.3197 157.75 9.54969C155.97 7.89969 153.72 7.46969 151.2 7.42969C147.87 7.38969 143.96 8.56969 141.55 11.5197L144.8 14.2297C146.39 12.4197 148.6 11.5997 151.15 11.5197C152.29 11.4897 155.67 11.9897 155.33 14.1897C155.14 15.4497 153.15 16.0097 148.31 16.4097C143.31 16.7997 140 19.6597 140.18 23.5497C140.37 27.5897 143.85 30.1897 147.4 30.1997C151.44 30.1997 154.16 28.2497 155.48 26.1297L155.41 29.7397H159.97H160ZM144.81 23.1897C145.01 20.8897 146.88 19.8497 148.94 19.6897C152.85 19.4097 154.46 19.3197 155.35 18.5797C155.15 28.8397 144.5 26.8497 144.81 23.1897Z" fill="#19192B"/>
<path d="M139.54 7.42969C136.07 7.73969 133.32 9.63969 132.01 11.4597L132.12 7.84969H127.44V29.7397H132.12V18.5897C132.12 13.2097 135.76 12.3297 139.49 12.4597L139.55 7.42969H139.54Z" fill="#19192B"/>
<path d="M70.0904 7.42018C65.8304 7.42018 63.4704 10.3102 62.6704 11.8702L62.6204 11.4602C60.7804 7.00018 56.2904 7.43018 56.2904 7.43018C52.0304 7.43018 50.3704 9.90018 49.5704 11.4602L49.6304 7.84018H45.1904V29.7402H49.8304V18.5202C49.8304 14.2502 51.6804 11.8502 54.5504 11.4602C56.9704 11.1302 58.8704 12.7602 58.8704 16.3302V29.7402H63.4704V18.5802C63.4704 13.8302 65.3304 11.8602 68.2004 11.4602C70.6204 11.1302 72.5204 12.7602 72.5204 16.3302V29.7402H77.1204V16.4502C77.1204 7.42018 70.0904 7.42018 70.0904 7.42018Z" fill="#19192B"/>
<path d="M86.2601 0.459961H81.5801V5.14996H86.2601V0.459961Z" fill="#19192B"/>
<path d="M118.69 22.4704V11.6404H123.32V7.83043H118.69V2.94043H114.06V7.83043H111.04V11.6404H114.06V23.3004C114.06 29.2004 118.5 30.2104 120.69 30.2104C121.08 30.2104 122.81 30.0504 123.63 29.6204L122.37 25.7304C120.45 26.3604 118.68 25.7704 118.68 22.4704H118.69Z" fill="#19192B"/>
</svg>
