<?xml version="1.0" encoding="UTF-8"?><svg id="b" xmlns="http://www.w3.org/2000/svg" viewBox="0 0 851.85 158.41"><g id="c"><g><polygon points="24.49 133.92 24.49 5.94 0 5.94 0 156.14 101.03 156.14 101.03 133.92 24.49 133.92"/><rect x="434.35" y="39.3" width="24.91" height="116.59"/><path d="M189.5,39.54v59.73c0,25.29-9.49,35.55-24.79,37.64-12.86,1.76-26.88-6.97-26.88-25.99V39.54h-24.49V110.32c0,48.09,40.92,48.09,40.92,48.09,22.7,0,32.31-13.22,36.6-21.53l-.31,19.26h23.65V39.54h-24.7Z"/><path d="M524.12,83.97c-33.58-5.06-17.56-24.2,.53-25.39,14.69-.97,28.34,3.94,36.64,14.2l15.81-13.52c-4.85-6.39-11.52-11.51-20.02-15.55-9.71-4.47-20.22-6.61-31.55-6.61-20.82,0-45.3,9.59-45.3,36.43,0,12.71,8.15,24.78,27.5,29.19,9.04,2.06,50.35,3.61,50.35,19.82,0,18.38-35.25,15.73-49.34,8.95-7.08-3.41-12.74-7.88-16.79-13.85l-16.78,16.19c5.87,7.67,13.75,13.42,23.25,17.68,10.52,4.48,22.04,6.82,34.38,6.82,26.02,0,48.93-11.71,48.93-36.22,0-33.6-46.27-36.42-57.63-38.14Z"/><path d="M851.85,155.88V91.52c0-25.12-1.65-33.7-11.97-43.12-9.49-8.79-21.45-11.09-34.86-11.3-17.74-.21-38.57,6.07-51.36,21.77l17.32,14.44c8.46-9.63,20.21-14.02,33.83-14.44,6.05-.19,24.08,2.51,22.28,14.23-1.03,6.7-11.6,9.71-37.39,11.8-26.61,2.09-44.26,17.32-43.26,38.02,1.04,21.49,19.52,35.38,38.43,35.41,21.5,.03,35.99-10.39,43.04-21.68l-.37,19.24h24.3Zm-80.86-34.85c1.06-12.25,11.04-17.8,21.97-18.63,20.83-1.47,29.39-1.96,34.14-5.93-1.04,54.62-57.79,44.04-56.11,24.57Z"/><path d="M742.94,37.09c-18.49,1.64-33.12,11.79-40.1,21.45l.59-19.24h-24.91v116.54h24.91v-59.38c0-28.67,19.4-33.35,39.22-32.62l.3-26.76Z"/><path d="M373.15,37.03c-22.7,0-35.23,15.41-39.52,23.72l-.26-2.18c-9.8-23.76-33.72-21.45-33.72-21.45-22.7,0-31.5,13.14-35.8,21.44l.31-19.26h-23.65v116.6h24.7v-59.73c0-22.73,9.86-35.51,25.15-37.6,12.86-1.76,23.03,6.93,23.03,25.94v71.38h24.49v-59.43c0-25.29,9.89-35.8,25.18-37.89,12.86-1.76,23.03,6.93,23.03,25.94v71.38h24.49V85.12c0-48.09-37.44-48.09-37.44-48.09Z"/><rect x="434.35" width="24.91" height="24.97"/><path d="M631.94,117.16V59.49h24.65v-20.27h-24.65V13.18h-24.66v26.04h-16.09v20.27h16.09v62.06c0,31.42,23.65,36.77,35.31,36.77,2.09,0,11.28-.84,15.67-3.13l-6.69-20.69c-10.24,3.34-19.64,.21-19.64-17.34Z"/></g></g></svg>