<svg viewBox="0 0 39 39" fill="none" xmlns="http://www.w3.org/2000/svg">
<path d="M21.4001 34.4404C28.8501 33.5104 34.6201 27.1502 34.6201 19.4502C34.6201 11.1002 27.8601 4.33984 19.5101 4.33984C11.1601 4.33984 4.40015 11.1002 4.40015 19.4502C4.40015 27.1602 10.1701 33.5104 17.6201 34.4404V23.2197H13.8401V19.4404H17.6201V16.3203C17.6201 13.7903 17.8801 12.8802 18.3801 11.9502C18.8701 11.0302 19.6001 10.2996 20.5201 9.80957C21.2401 9.41957 22.1401 9.18984 23.7101 9.08984C24.3301 9.04984 25.1401 9.10023 26.1201 9.24023V12.8301H25.1802C23.4502 12.8301 22.7302 12.9096 22.3102 13.1396C22.0502 13.2796 21.8601 13.4705 21.7201 13.7305C21.4901 14.1605 21.4102 14.5796 21.4102 16.3096V19.4297H26.1301L25.1901 23.21H21.4102V34.4297L21.4001 34.4404ZM19.5101 38.3301C9.08013 38.3301 0.620117 29.8704 0.620117 19.4404C0.620117 9.01043 9.08013 0.549805 19.5101 0.549805C29.9401 0.549805 38.4001 9.01043 38.4001 19.4404C38.4001 29.8704 29.9401 38.3301 19.5101 38.3301Z" fill="currentColor"/>
</svg>
