<?xml version="1.0" encoding="UTF-8"?><svg id="b" xmlns="http://www.w3.org/2000/svg" viewBox="0 0 43.55 48.14"><g id="c"><path d="m22.92,0l-13.75,22.92h27.51L22.92,0Zm0,8.91l5.66,9.43h-11.31l5.66-9.43Zm-12.03,34.64c-3.48,0-6.3-2.82-6.3-6.3s2.82-6.3,6.3-6.3,6.3,2.82,6.3,6.3-2.82,6.3-6.3,6.3Zm0,4.58c6.01,0,10.89-4.87,10.89-10.89s-4.87-10.89-10.89-10.89S0,31.23,0,37.25s4.87,10.89,10.89,10.89Zm18.91-14.9v9.17h9.17v-9.17h-9.17Zm-4.58,13.75v-18.34h18.34v18.34h-18.34Z" style="fill:currentColor;"/></g></svg>