<svg viewBox="0 0 38 38" fill="none" xmlns="http://www.w3.org/2000/svg">
<path d="M19.0504 13.6396C15.9504 13.6396 13.4403 16.15 13.4403 19.25C13.4403 22.35 15.9504 24.8604 19.0504 24.8604C22.1504 24.8604 24.6604 22.35 24.6604 19.25C24.6604 16.15 22.1504 13.6396 19.0504 13.6396ZM19.0504 9.90039C24.2104 9.90039 28.3904 14.0802 28.3904 19.2402C28.3904 24.4002 24.2104 28.5801 19.0504 28.5801C13.8904 28.5801 9.71033 24.4002 9.71033 19.2402C9.71033 14.0802 13.8904 9.90039 19.0504 9.90039ZM31.2003 9.42969C31.2003 10.7197 30.1504 11.7695 28.8604 11.7695C27.5704 11.7695 26.5204 10.7197 26.5204 9.42969C26.5204 8.13969 27.5704 7.09961 28.8604 7.09961C30.1504 7.09961 31.2003 8.14969 31.2003 9.42969ZM19.0504 4.29004C14.4304 4.29004 13.6704 4.30039 11.5204 4.40039C10.0504 4.47039 9.0704 4.66953 8.1604 5.01953C7.3504 5.32953 6.76038 5.71008 6.14038 6.33008C5.52038 6.95008 5.14032 7.53961 4.83032 8.34961C4.47032 9.25961 4.28033 10.25 4.21033 11.71C4.11033 13.77 4.10034 14.4902 4.10034 19.2402C4.10034 23.9902 4.11033 24.6195 4.21033 26.7695C4.28033 28.2295 4.48032 29.2199 4.83032 30.1299C5.15032 30.9399 5.52038 31.5304 6.14038 32.1504C6.77038 32.7804 7.3504 33.15 8.1604 33.46C9.0804 33.82 10.0704 34.0101 11.5204 34.0801C13.5804 34.1801 14.3004 34.1904 19.0504 34.1904C23.8004 34.1904 24.4303 34.1801 26.5803 34.0801C28.0403 34.0101 29.0303 33.81 29.9403 33.46C30.7503 33.15 31.3403 32.7704 31.9603 32.1504C32.5903 31.5204 32.9604 30.9399 33.2704 30.1299C33.6304 29.2099 33.8204 28.2295 33.8904 26.7695C33.9904 24.7095 34.0004 23.9902 34.0004 19.2402C34.0004 14.4902 33.9904 13.86 33.8904 11.71C33.8204 10.25 33.6204 9.25961 33.2704 8.34961C32.9604 7.53961 32.5803 6.95008 31.9603 6.33008C31.3303 5.70008 30.7503 5.32953 29.9403 5.01953C29.0303 4.66953 28.0403 4.47039 26.5803 4.40039C24.5203 4.30039 23.8004 4.29004 19.0504 4.29004ZM19.0504 0.549805C24.1304 0.549805 24.7604 0.570156 26.7504 0.660156C28.7404 0.750156 30.1004 1.07027 31.2904 1.53027C32.5204 2.00027 33.5603 2.65043 34.6003 3.69043C35.6403 4.73043 36.2804 5.77 36.7604 7C37.2204 8.19 37.5404 9.55004 37.6304 11.54C37.7204 13.53 37.7404 14.1702 37.7404 19.2402C37.7404 24.3102 37.7204 24.9504 37.6304 26.9404C37.5404 28.9304 37.2204 30.2905 36.7604 31.4805C36.2804 32.7105 35.6403 33.75 34.6003 34.79C33.5603 35.83 32.5204 36.4702 31.2904 36.9502C30.1004 37.4102 28.7404 37.7303 26.7504 37.8203C24.7604 37.9103 24.1204 37.9297 19.0504 37.9297C13.9804 37.9297 13.3403 37.9103 11.3503 37.8203C9.36034 37.7303 8.01042 37.4102 6.81042 36.9502C5.58042 36.4702 4.54037 35.83 3.50037 34.79C2.46037 33.75 1.82033 32.7105 1.34033 31.4805C0.880332 30.2905 0.560337 28.9304 0.470337 26.9404C0.380337 24.9504 0.360352 24.3102 0.360352 19.2402C0.360352 14.1702 0.380337 13.53 0.470337 11.54C0.560337 9.55004 0.880332 8.19 1.34033 7C1.81033 5.77 2.46037 4.73043 3.50037 3.69043C4.54037 2.65043 5.58042 2.01027 6.81042 1.53027C8.00042 1.07027 9.36034 0.750156 11.3503 0.660156C13.3403 0.570156 13.9804 0.549805 19.0504 0.549805Z" fill="currentColor"/>
</svg>
