<svg width="36" height="35" viewBox="0 0 36 35" fill="none" xmlns="http://www.w3.org/2000/svg">
<path d="M17.4208 12.4199C19.2208 10.5799 21.5608 9.37988 24.2808 9.37988C30.2308 9.37988 35.0608 14.2102 35.0608 20.1602V34.8604H31.1407V20.1602C31.1407 16.3702 28.0708 13.2998 24.2808 13.2998C20.4908 13.2998 17.4208 16.3702 17.4208 20.1602V34.8604H13.5007V10.3604H17.4208V12.4199ZM3.70068 6.44043C2.08068 6.44043 0.760742 5.12 0.760742 3.5C0.760742 1.88 2.08068 0.55957 3.70068 0.55957C5.32068 0.55957 6.64075 1.88 6.64075 3.5C6.64075 5.12 5.32068 6.44043 3.70068 6.44043ZM1.74072 10.3604H5.66077V34.8604H1.74072V10.3604Z" fill="#53565B"/>
</svg>
