<?xml version="1.0" encoding="utf-8"?>
<!-- Generator: Adobe Illustrator 27.6.1, SVG Export Plug-In . SVG Version: 6.00 Build 0)  -->
<svg version="1.1" id="a" xmlns="http://www.w3.org/2000/svg" xmlns:xlink="http://www.w3.org/1999/xlink" x="0px" y="0px"
	 viewBox="0 0 984 141" style="enable-background:new 0 0 984 141;" xml:space="preserve">
<g>
	<g>
		<rect y="99.6" width="187.7" height="39.7"/>
		<polygon points="108.7,86.9 187.7,51 187.7,5.1 131.4,5.1 93.8,60.3 56.2,5.1 0,5.1 0,51 78.9,86.9 		"/>
	</g>
	<g>
		<polygon points="278.7,4.8 258.3,4.8 258.3,138.7 348.8,138.7 348.8,120.9 278.7,120.9 		"/>
		<path d="M425.7,93.8c0,19.8-8.2,30.8-23.2,30.8c-13.7,0-20.3-8.1-20.3-24.9V39.1h-20.1v63.6c0,24.4,13.1,38.3,35.9,38.3
			c11.9,0,22.1-5,28.3-13.5v11.2h19.5V39.1h-20.1V93.8z"/>
		<path d="M577.5,36.8c-13.5,0-25.1,6.5-31.8,17.6c-5.3-11.7-15.2-17.6-29.3-17.6c-11.6,0-21.9,5.2-28.1,13.7V39.1h-19.3v99.6h19.9
			V84.1c0-19.2,8.4-30.2,23.2-30.2c12.9,0,18.6,7.6,18.6,24.7v60.2h20.1V84.1c0-19.2,8.4-30.2,23-30.2c12.9,0,18.6,7.6,18.6,24.7
			v60.2h20.1V75.2C612.4,50.8,599.7,36.8,577.5,36.8z"/>
		<rect x="634.9" y="39.1" width="19.9" height="99.6"/>
		<rect x="633.7" width="22" height="23.3"/>
		<path d="M727.4,81.9l-19-3.6c-12.5-2.4-15-6.2-15-11.6c0-8.2,7.4-13.5,18.8-13.5c12.2,0,19.7,4.9,20.7,13.6l0.2,1.8h18.7l-0.2-2.3
			c-2-18.9-16-29.4-39.5-29.4c-21.8,0-37.6,12.9-37.6,30.7c0,9.7,2.9,23.2,28.2,27.8l16.9,3.4c13.2,2.5,15,7.4,15,11.8
			c0,8.7-8.1,14.3-20.5,14.3c-11,0-23.1-4.4-24.1-16.7l-0.2-1.9h-19.3l0.2,2.2c1.7,20.3,18,32.5,43.6,32.5
			c22.8,0,39.3-13.1,39.3-31.1C753.7,94.5,745.1,85.3,727.4,81.9z"/>
		<path d="M805.8,122.8c-8.4,0-11.8-3.3-11.8-11.4V55.2h25.2V39.1h-25.1V14.8h-19.7v24.3h-14v16.1h14v57c0,18.6,9.6,28.1,28.5,28.1
			c5.4,0,11.2-0.9,17.3-2.7l1.5-0.4v-17.3l-2.7,0.8C812.9,122.6,808.9,122.8,805.8,122.8z"/>
		<path d="M883.7,37c-12.2,0-22.3,6-28.3,16.3V39.1h-19.3v99.6h19.9V89.6c0-16.9,8.3-34,27-34c2.4,0,5.6,0.2,7.7,0.7l2.6,0.6V38.2
			l-1.6-0.4C889.4,37.3,886.7,37,883.7,37z"/>
		<path d="M983.2,136.1c-1.9-6.3-2.2-13-2.2-19.3V72.9c0-23.2-14.1-36-39.7-36c-22,0-37.5,12.7-39.5,32.2l-0.2,2.3H921l0.2-1.9
			c1-10,8.2-15.8,19.8-15.8c9.3,0,20.3,3.4,20.3,19.6v3.7l-28.9,3.7c-23.1,2.7-34.9,13.1-34.9,30.7c0,17.3,13.6,29.4,33,29.4
			c13.6,0,25.2-5,31.5-13.1c0.3,3.2,0.8,6.5,1.4,9.4l0.3,1.6H984L983.2,136.1z M933.8,124.7c-10,0-16.2-5.2-16.2-13.7
			c0-10.7,7.4-13.8,20-15.6l23.7-2.6v6.2C961.3,116.7,947,124.7,933.8,124.7z"/>
	</g>
</g>
</svg>
