<?xml version="1.0" encoding="utf-8"?>
<!-- Generator: Adobe Illustrator 27.6.1, SVG Export Plug-In . SVG Version: 6.00 Build 0)  -->
<svg version="1.1" id="Layer_1" xmlns="http://www.w3.org/2000/svg" xmlns:xlink="http://www.w3.org/1999/xlink" x="0px" y="0px"
	 viewBox="0 0 814 158" style="enable-background:new 0 0 814 158;" xml:space="preserve">
<g>
	<polygon points="23.3,5.3 0.4,5.3 0.4,155.4 101.8,155.4 101.8,135.5 23.3,135.5 	"/>
	<path d="M188,105.1c0,22.2-9.2,34.5-26,34.5c-15.3,0-22.8-9.1-22.8-27.9V43.8h-22.5v71.2c0,27.3,14.6,42.9,40.2,42.9
		c13.3,0,24.8-5.6,31.7-15.1v12.6h21.9V43.8H188V105.1z"/>
	<path d="M358.1,41.3c-15.1,0-28.1,7.3-35.6,19.7c-6-13.1-17-19.7-32.9-19.7c-13,0-24.6,5.8-31.5,15.3V43.8h-21.6v111.6h22.3V94.2
		c0-21.5,9.5-33.8,26-33.8c14.4,0,20.9,8.5,20.9,27.7v67.4h22.5V94.2c0-21.5,9.4-33.8,25.8-33.8c14.4,0,20.9,8.5,20.9,27.7v67.4
		h22.5V84.2C397.2,56.9,382.9,41.3,358.1,41.3z"/>
	<rect x="422.4" y="43.8" width="22.3" height="111.6"/>
	<rect x="421.1" width="24.6" height="26.1"/>
	<path d="M526,91.7l-21.3-4c-14-2.7-16.8-7-16.8-13c0-9.2,8.3-15.1,21.1-15.1c13.6,0,22.1,5.5,23.2,15.2l0.2,2h21l-0.3-2.6
		C551,53,535.3,41.3,509,41.3c-24.4,0-42.1,14.5-42.1,34.4c0,10.9,3.3,25.9,31.6,31.2l19,3.8c14.8,2.8,16.8,8.3,16.8,13.3
		c0,9.7-9,16-23,16c-12.3,0-25.8-4.9-27-18.7l-0.2-2.1h-21.7l0.2,2.5c1.9,22.8,20.2,36.4,48.9,36.4c25.5,0,44-14.7,44-34.9
		C555.6,105.9,545.9,95.6,526,91.7z"/>
	<path d="M613.9,137.6c-9.4,0-13.2-3.7-13.2-12.8v-63H629v-18h-28.1V16.6h-22.1v27.2h-15.7v18h15.7v63.8c0,20.9,10.7,31.5,31.9,31.5
		c6,0,12.5-1,19.4-3.1l1.7-0.5v-19.3l-3,0.9C621.8,137.3,617.4,137.6,613.9,137.6z"/>
	<path d="M701.2,41.5c-13.6,0-25,6.8-31.7,18.3V43.8h-21.6v111.6h22.3v-55.1c0-19,9.3-38.1,30.2-38.1c2.6,0,6.3,0.2,8.6,0.8l2.9,0.7
		V42.8l-1.8-0.4C707.6,41.8,704.6,41.5,701.2,41.5z"/>
	<path d="M812.7,152.5c-2.2-7.1-2.5-14.6-2.5-21.7V81.7c0-26-15.8-40.4-44.4-40.4c-24.7,0-42.1,14.2-44.2,36.1l-0.2,2.5H743l0.2-2.1
		c1.2-11.3,9.2-17.7,22.2-17.7c10.4,0,22.8,3.8,22.8,21.9v4.1l-32.4,4.2c-25.9,3-39.1,14.6-39.1,34.4c0,19.4,15.2,32.9,37,32.9
		c15.2,0,28.2-5.6,35.3-14.7c0.3,3.6,0.9,7.3,1.6,10.5l0.4,1.8h22.6L812.7,152.5z M757.3,139.8c-11.2,0-18.1-5.9-18.1-15.3
		c0-11.9,8.2-15.5,22.4-17.5l26.6-2.9v7C788.2,130.8,772.2,139.8,757.3,139.8z"/>
</g>
</svg>
