<?xml version="1.0" encoding="UTF-8"?><svg id="b" xmlns="http://www.w3.org/2000/svg" viewBox="0 0 43.83 43.83"><g id="c"><path d="m17.02,38.16c-3.63,1.49-7.72,1.49-11.35,0-1.49-3.63-1.49-7.72,0-11.35l3.66,3.66c-.26,1.32-.27,2.69,0,4.03,1.34.27,2.71.26,4.03,0l3.66,3.66Zm12.47-4.37l-.43,6.92-3.12,3.12L0,17.9l3.12-3.12,6.92-.43,9.41-9.41c5.65-5.65,14.51-6.39,21.95-2.5,3.89,7.45,3.14,16.31-2.5,21.95l-9.41,9.41Zm-4.74,2.37l.28-4.39,10.63-10.63c3.76-3.76,4.64-9.73,2.3-15.27-5.54-2.33-11.51-1.45-15.27,2.3l-10.63,10.63-4.39.28,17.08,17.08Zm4.43-16.76c-6.11-.83-6.11-8.67,0-9.5,6.11.83,6.11,8.67,0,9.5Z" style="fill:currentColor;"/></g></svg>